<?xml version="1.0" encoding="UTF-8" standalone="no"?>
<svg
   xmlns:dc="http://purl.org/dc/elements/1.1/"
   xmlns:cc="http://creativecommons.org/ns#"
   xmlns:rdf="http://www.w3.org/1999/02/22-rdf-syntax-ns#"
   xmlns:svg="http://www.w3.org/2000/svg"
   xmlns="http://www.w3.org/2000/svg"
   xmlns:sodipodi="http://sodipodi.sourceforge.net/DTD/sodipodi-0.dtd"
   xmlns:inkscape="http://www.inkscape.org/namespaces/inkscape"
   width="800"
   height="320"
   version="1.1"
   viewBox="0 0 800 319.99999"
   id="svg21"
   sodipodi:docname="dialogflow.svg"
   inkscape:version="0.92.2 5c3e80d, 2017-08-06"
   inkscape:export-filename="/Users/rohitrathi/Desktop/Personal/R2Page/RathiRohit.github.io/images/logos/technologies/dialogflow.png"
   inkscape:export-xdpi="60"
   inkscape:export-ydpi="60">
  <sodipodi:namedview
     pagecolor="#ffffff"
     bordercolor="#666666"
     borderopacity="1"
     objecttolerance="10"
     gridtolerance="10"
     guidetolerance="10"
     inkscape:pageopacity="0"
     inkscape:pageshadow="2"
     inkscape:window-width="1440"
     inkscape:window-height="776"
     id="namedview66"
     showgrid="false"
     inkscape:pagecheckerboard="true"
     inkscape:zoom="1.275"
     inkscape:cx="372.94118"
     inkscape:cy="160"
     inkscape:window-x="0"
     inkscape:window-y="0"
     inkscape:window-maximized="1"
     inkscape:current-layer="svg21" />
  <metadata
     id="metadata25">
    <rdf:RDF>
      <cc:Work
         rdf:about="">
        <dc:format>image/svg+xml</dc:format>
        <dc:type
           rdf:resource="http://purl.org/dc/dcmitype/StillImage" />
        <dc:title></dc:title>
      </cc:Work>
    </rdf:RDF>
  </metadata>
  <defs
     id="defs5">
    <clipPath
       id="clip-path">
      <path
         d="M 138.05,37.577 79.27,3.657 a 12.3,12.3 0 0 0 -12.33,0 L 8.15,37.577 A 12.37,12.37 0 0 0 2,48.267 v 67.89 a 12.33,12.33 0 0 0 6.15,10.66 l 29.41,17 v 34.66 a 3.7,3.7 0 0 0 5.55,3.19 l 95,-54.82 a 12.3,12.3 0 0 0 6.15,-10.66 v -67.93 a 12.4,12.4 0 0 0 -6.21,-10.68 z"
         id="path2"
         inkscape:connector-curvature="0"
         style="fill:none" />
    </clipPath>
  </defs>
  <g
     clip-path="url(#clip-path)"
     id="g17"
     transform="matrix(1.149398,0,0,1.149398,21.758268,54.161616)">
    <path
       d="M 144.2,41.157 73.12,82.207 2,41.157 v 82.1 l 35.56,20.51 v 41.06 l 106.64,-61.57 z"
       id="path7"
       inkscape:connector-curvature="0"
       style="fill:#ef6c00" />
    <g
       id="g15"
       style="fill:#ff9800">
      <path
         d="M 73.12,82.207 2,41.157 73.12,0.107 144.2,41.157 Z"
         id="path9"
         inkscape:connector-curvature="0" />
      <path
         d="M 71.86,80.957 2.45,40.887 2,41.157 l 71.12,41.05 71.08,-41.05 -1.67,-0.99 z"
         id="path11"
         inkscape:connector-curvature="0" />
      <path
         d="m 73.12,82.717 v -0.51 L 2.45,41.397 2,41.667 Z"
         id="path13"
         inkscape:connector-curvature="0" />
    </g>
  </g>
  <text
     xml:space="preserve"
     style="font-style:normal;font-variant:normal;font-weight:normal;font-stretch:normal;font-size:119.01616669px;line-height:1.25;font-family:'.Helvetica LT MM';-inkscape-font-specification:'.Helvetica LT MM';letter-spacing:0px;word-spacing:0px;fill:#ffffff;fill-opacity:1;stroke:none;stroke-width:0.61987591"
     x="211.46042"
     y="193.248"
     id="text70"><tspan
       sodipodi:role="line"
       id="tspan68"
       x="211.46042"
       y="193.248"
       style="stroke-width:0.61987591">Dialogflow</tspan></text>
</svg>
